<svg id="Layer_1" data-name="Layer 1" xmlns="http://www.w3.org/2000/svg" viewBox="0 0 18 18"><defs><style>.cls-1{fill:#fff;}</style></defs><title>leader-white</title><path class="cls-1" d="M24,25a5,5,0,1,1,5-5A5,5,0,0,1,24,25Zm0-8a3,3,0,1,0,3,3A3,3,0,0,0,24,17Z" transform="translate(-15 -15)"/><path class="cls-1" d="M33,33H31V32.33C31,30,27.79,28,24,28s-7,2-7,4.33V33H15V32.33C15,28.78,19,26,24,26s9,2.78,9,6.33V33Z" transform="translate(-15 -15)"/><path class="cls-1" d="M27.62,32.16A5,5,0,0,0,24,31a5,5,0,0,0-3.62,1.16l-0.76-.65A5.89,5.89,0,0,1,24,30a5.89,5.89,0,0,1,4.38,1.51Z" transform="translate(-15 -15)"/></svg>