<svg id="Layer_1" data-name="Layer 1" xmlns="http://www.w3.org/2000/svg" viewBox="0 0 357.53 452.85"><defs><style>.cls-1{fill:#fff;}</style></defs><title>recognition</title><polygon class="cls-1" points="178.77 96.99 203.34 146.78 258.29 154.77 218.53 193.52 227.91 248.25 178.77 222.41 129.62 248.25 139 193.52 99.24 154.77 154.19 146.78 178.77 96.99"/><path class="cls-1" d="M603.23,565.49c-4.17,0-9.26,1.17-14.65,2.41-6.1,1.4-12.4,2.85-18.56,2.85a27.31,27.31,0,0,1-14-3.44c-10.13-5.86-13.75-17.75-16.95-28.23-2-6.59-4.08-13.4-7.15-16.47a15,15,0,0,0-3.8-2.58L474.22,632.78l60.38-2.63,35.49,48.42L619.5,575.13c-4.52-4.21-9.09-8.28-12.75-9.25A13.87,13.87,0,0,0,603.23,565.49Z" transform="translate(-471.23 -225.72)"/><path class="cls-1" d="M768.12,522.61c-3.07,3.07-5.14,9.88-7.15,16.47-3.2,10.49-6.82,22.37-16.95,28.23a27.31,27.31,0,0,1-14,3.44c-6.16,0-12.46-1.45-18.56-2.85-5.39-1.24-10.48-2.41-14.65-2.41a13.87,13.87,0,0,0-3.52.39c-3.65,1-8.22,5-12.75,9.25l49.42,103.44,35.49-48.42,60.38,2.63L771.91,520A15,15,0,0,0,768.12,522.61Z" transform="translate(-471.23 -225.72)"/><path class="cls-1" d="M802.49,445.35c3.71-13.9,26.28-25.8,26.28-40.87s-22.57-27-26.28-40.87c-3.84-14.38,9.64-35.95,2.35-48.54-7.39-12.77-32.87-11.83-43.24-22.2s-9.43-35.85-22.2-43.24c-12.59-7.28-34.16,6.19-48.54,2.35-13.9-3.71-25.8-26.28-40.87-26.28S623,248.29,609.13,252c-14.38,3.84-35.95-9.64-48.54-2.35-12.77,7.39-11.83,32.87-22.2,43.24s-35.85,9.43-43.24,22.2c-7.28,12.59,6.19,34.16,2.35,48.54-3.71,13.9-26.28,25.8-26.28,40.87s22.57,27,26.28,40.87c3.84,14.38-9.64,35.95-2.35,48.54,7.39,12.77,32.87,11.83,43.24,22.2s9.43,35.85,22.2,43.24c12.59,7.28,34.16-6.19,48.54-2.35,13.9,3.71,25.8,26.28,40.87,26.28s27-22.57,40.87-26.28c14.38-3.84,35.95,9.64,48.54,2.35,12.77-7.39,11.83-32.87,22.2-43.24s35.85-9.43,43.24-22.2C812.12,481.3,798.64,459.73,802.49,445.35ZM650,525.11A120.62,120.62,0,1,1,770.62,404.49,120.62,120.62,0,0,1,650,525.11Z" transform="translate(-471.23 -225.72)"/></svg>